<svg width="1912" height="880" viewBox="0 0 1912 880" fill="none" xmlns="http://www.w3.org/2000/svg">
<path d="M307.273 401.428C307.273 411.087 305.665 419.972 302.449 428.083C299.303 436.193 294.934 443.198 289.341 449.097C283.748 454.922 277.107 459.493 269.416 462.811C261.726 466.129 253.372 467.788 244.353 467.788H170.737C168.78 467.788 166.962 467.419 165.284 466.682C163.607 465.945 162.138 464.949 160.88 463.696C159.692 462.369 158.748 460.82 158.049 459.051C157.35 457.281 157 455.364 157 453.299V323.677C157 321.686 157.35 319.806 158.049 318.036C158.748 316.266 159.692 314.718 160.88 313.391C162.138 312.064 163.607 311.031 165.284 310.294C166.962 309.557 168.78 309.188 170.737 309.188H244.353C253.372 309.188 261.726 310.847 269.416 314.165C277.107 317.483 283.748 322.091 289.341 327.99C294.934 333.815 299.303 340.819 302.449 349.004C305.665 357.115 307.273 365.962 307.273 375.548V401.428ZM280.008 375.548C280.008 369.944 279.134 364.82 277.386 360.174C275.708 355.529 273.296 351.585 270.15 348.34C267.004 345.022 263.229 342.478 258.825 340.709C254.49 338.866 249.667 337.944 244.353 337.944H214.265C197.697 337.944 184.265 351.375 184.265 367.944V439.032H244.353C249.667 439.032 254.49 438.147 258.825 436.378C263.229 434.534 267.004 431.991 270.15 428.746C273.296 425.428 275.708 421.484 277.386 416.912C279.134 412.267 280.008 407.106 280.008 401.428V375.548Z" fill="#2479DF"/>
<path d="M481.56 440.523C481.56 455.581 469.353 467.788 454.295 467.788V467.788V428.857H358.448V440.523C358.448 455.581 346.241 467.788 331.182 467.788V467.788V388.488C331.182 376.912 333.07 366.257 336.845 356.525C340.62 346.792 345.864 338.423 352.575 331.419C359.287 324.414 367.221 318.958 376.38 315.05C385.538 311.142 395.535 309.188 406.371 309.188H467.823C469.711 309.188 471.493 309.557 473.171 310.294C474.849 311.031 476.317 312.064 477.576 313.391C478.834 314.718 479.813 316.266 480.512 318.036C481.211 319.806 481.56 321.686 481.56 323.677V440.523ZM358.448 400.101H454.295V337.944H406.371C405.533 337.944 403.75 338.091 401.023 338.386C398.367 338.607 395.256 339.234 391.69 340.266C388.195 341.299 384.489 342.884 380.574 345.022C376.659 347.161 373.059 350.11 369.773 353.87C366.487 357.631 363.761 362.35 361.594 368.027C359.496 373.631 358.448 380.451 358.448 388.488V400.101Z" fill="#2479DF"/>
<path d="M663.608 362.497C663.608 369.059 662.839 374.921 661.301 380.082C659.763 385.244 657.665 389.815 655.009 393.797C652.422 397.705 649.416 401.059 645.99 403.861C642.565 406.663 638.964 408.986 635.189 410.829C631.484 412.599 627.709 413.889 623.864 414.7C620.088 415.511 616.523 415.917 613.167 415.917L660.563 459.092C663.94 462.168 661.764 467.788 657.196 467.788H627.953L571.116 415.917H551.506V397.161C551.506 391.638 555.983 387.161 561.506 387.161H613.167C616.593 386.866 619.704 386.129 622.5 384.949C625.367 383.695 627.814 382.036 629.841 379.972C631.938 377.907 633.546 375.437 634.665 372.562C635.783 369.612 636.343 366.257 636.343 362.497V344.359C636.343 342.737 636.133 341.52 635.714 340.709C635.364 339.824 634.875 339.197 634.245 338.829C633.686 338.386 633.057 338.128 632.358 338.054C631.729 337.981 631.134 337.944 630.575 337.944H540.6V440.523C540.6 455.581 528.393 467.788 513.335 467.788V467.788V323.677C513.335 321.686 513.684 319.806 514.383 318.036C515.083 316.266 516.026 314.718 517.215 313.391C518.473 312.064 519.941 311.031 521.619 310.294C523.297 309.557 525.115 309.188 527.072 309.188H630.575C636.657 309.188 641.796 310.368 645.99 312.727C650.185 315.013 653.576 317.925 656.162 321.465C658.819 324.93 660.707 328.69 661.825 332.746C663.014 336.801 663.608 340.598 663.608 344.137V362.497Z" fill="#2479DF"/>
<path d="M882.988 309.188L857.82 457.834C857.26 460.783 856.002 463.327 854.045 465.465C852.087 467.604 849.71 468.968 846.914 469.558C844.047 470.074 841.321 469.742 838.734 468.562C836.217 467.382 834.225 465.539 832.757 463.032L782.841 376.543L732.819 463.032C731.631 465.17 729.988 466.829 727.891 468.009C725.863 469.189 723.661 469.779 721.284 469.779C717.998 469.779 715.097 468.673 712.58 466.461C710.064 464.249 708.525 461.373 707.966 457.834L682.589 309.188H684.998C699.602 309.188 712.084 319.704 714.563 334.097L728.31 413.926L771.305 341.594C772.494 339.455 774.102 337.796 776.129 336.617C778.226 335.437 780.464 334.847 782.841 334.847C785.217 334.847 787.42 335.437 789.447 336.617C791.474 337.796 793.152 339.455 794.481 341.594L837.266 413.926L851.013 334.097C853.492 319.704 865.974 309.188 880.578 309.188H882.988Z" fill="#2479DF"/>
<path d="M933.848 440.523C933.848 455.581 921.641 467.788 906.582 467.788V467.788V336.453C906.582 321.395 918.79 309.188 933.848 309.188V309.188V440.523Z" fill="#2479DF"/>
<path d="M1116 455.511C1116 457.576 1115.62 459.493 1114.85 461.263C1114.15 463.032 1113.17 464.581 1111.91 465.908C1110.72 467.161 1109.29 468.157 1107.61 468.894C1105.93 469.631 1104.15 470 1102.26 470C1100.58 470 1098.87 469.668 1097.12 469.005C1095.45 468.341 1093.94 467.272 1092.61 465.797L992.992 356.082V440.523C992.992 455.581 980.785 467.788 965.727 467.788V467.788V321.465C965.727 318.515 966.496 315.861 968.034 313.501C969.642 311.068 971.669 309.262 974.116 308.082C976.703 306.976 979.359 306.718 982.086 307.308C984.813 307.824 987.155 309.151 989.112 311.289L1088.73 420.894V336.453C1088.73 321.395 1100.94 309.188 1116 309.188V309.188V455.511Z" fill="#2479DF"/>
<circle cx="567" cy="362" r="11.5" stroke="#2479DF" stroke-width="5"/>
<circle cx="610" cy="358" r="10" fill="#05FB96"/>
<path d="M738.078 525.156H716.141V586H707.188V525.156H685.297V517.75H738.078V525.156ZM763.203 586.938C756.328 586.938 750.734 584.688 746.422 580.188C742.109 575.656 739.953 569.609 739.953 562.047V560.453C739.953 555.422 740.906 550.938 742.812 547C744.75 543.031 747.438 539.938 750.875 537.719C754.344 535.469 758.094 534.344 762.125 534.344C768.719 534.344 773.844 536.516 777.5 540.859C781.156 545.203 782.984 551.422 782.984 559.516V563.125H748.625C748.75 568.125 750.203 572.172 752.984 575.266C755.797 578.328 759.359 579.859 763.672 579.859C766.734 579.859 769.328 579.234 771.453 577.984C773.578 576.734 775.438 575.078 777.031 573.016L782.328 577.141C778.078 583.672 771.703 586.938 763.203 586.938ZM762.125 541.469C758.625 541.469 755.688 542.75 753.312 545.312C750.938 547.844 749.469 551.406 748.906 556H774.312V555.344C774.062 550.938 772.875 547.531 770.75 545.125C768.625 542.688 765.75 541.469 762.125 541.469ZM813.406 579.859C816.5 579.859 819.203 578.922 821.516 577.047C823.828 575.172 825.109 572.828 825.359 570.016H833.562C833.406 572.922 832.406 575.688 830.562 578.312C828.719 580.938 826.25 583.031 823.156 584.594C820.094 586.156 816.844 586.938 813.406 586.938C806.5 586.938 801 584.641 796.906 580.047C792.844 575.422 790.812 569.109 790.812 561.109V559.656C790.812 554.719 791.719 550.328 793.531 546.484C795.344 542.641 797.938 539.656 801.312 537.531C804.719 535.406 808.734 534.344 813.359 534.344C819.047 534.344 823.766 536.047 827.516 539.453C831.297 542.859 833.312 547.281 833.562 552.719H825.359C825.109 549.438 823.859 546.75 821.609 544.656C819.391 542.531 816.641 541.469 813.359 541.469C808.953 541.469 805.531 543.062 803.094 546.25C800.688 549.406 799.484 553.984 799.484 559.984V561.625C799.484 567.469 800.688 571.969 803.094 575.125C805.5 578.281 808.938 579.859 813.406 579.859ZM851.984 541.422C855.828 536.703 860.828 534.344 866.984 534.344C877.703 534.344 883.109 540.391 883.203 552.484V586H874.531V552.438C874.5 548.781 873.656 546.078 872 544.328C870.375 542.578 867.828 541.703 864.359 541.703C861.547 541.703 859.078 542.453 856.953 543.953C854.828 545.453 853.172 547.422 851.984 549.859V586H843.312V514H851.984V541.422ZM930.406 578.641H962.75V586H921.359V517.75H930.406V578.641ZM1002.97 586C1002.47 585 1002.06 583.219 1001.75 580.656C997.719 584.844 992.906 586.938 987.312 586.938C982.312 586.938 978.203 585.531 974.984 582.719C971.797 579.875 970.203 576.281 970.203 571.938C970.203 566.656 972.203 562.562 976.203 559.656C980.234 556.719 985.891 555.25 993.172 555.25H1001.61V551.266C1001.61 548.234 1000.7 545.828 998.891 544.047C997.078 542.234 994.406 541.328 990.875 541.328C987.781 541.328 985.188 542.109 983.094 543.672C981 545.234 979.953 547.125 979.953 549.344H971.234C971.234 546.812 972.125 544.375 973.906 542.031C975.719 539.656 978.156 537.781 981.219 536.406C984.312 535.031 987.703 534.344 991.391 534.344C997.234 534.344 1001.81 535.812 1005.12 538.75C1008.44 541.656 1010.16 545.672 1010.28 550.797V574.141C1010.28 578.797 1010.88 582.5 1012.06 585.25V586H1002.97ZM988.578 579.391C991.297 579.391 993.875 578.688 996.312 577.281C998.75 575.875 1000.52 574.047 1001.61 571.797V561.391H994.812C984.188 561.391 978.875 564.5 978.875 570.719C978.875 573.438 979.781 575.562 981.594 577.094C983.406 578.625 985.734 579.391 988.578 579.391ZM1066.81 561.203C1066.81 568.953 1065.03 575.188 1061.47 579.906C1057.91 584.594 1053.12 586.938 1047.12 586.938C1040.72 586.938 1035.77 584.672 1032.27 580.141L1031.84 586H1023.88V514H1032.55V540.859C1036.05 536.516 1040.88 534.344 1047.03 534.344C1053.19 534.344 1058.02 536.672 1061.52 541.328C1065.05 545.984 1066.81 552.359 1066.81 560.453V561.203ZM1058.14 560.219C1058.14 554.312 1057 549.75 1054.72 546.531C1052.44 543.312 1049.16 541.703 1044.88 541.703C1039.16 541.703 1035.05 544.359 1032.55 549.672V571.609C1035.2 576.922 1039.34 579.578 1044.97 579.578C1049.12 579.578 1052.36 577.969 1054.67 574.75C1056.98 571.531 1058.14 566.688 1058.14 560.219ZM1107.31 572.547C1107.31 570.203 1106.42 568.391 1104.64 567.109C1102.89 565.797 1099.81 564.672 1095.41 563.734C1091.03 562.797 1087.55 561.672 1084.95 560.359C1082.39 559.047 1080.48 557.484 1079.23 555.672C1078.02 553.859 1077.41 551.703 1077.41 549.203C1077.41 545.047 1079.16 541.531 1082.66 538.656C1086.19 535.781 1090.69 534.344 1096.16 534.344C1101.91 534.344 1106.56 535.828 1110.12 538.797C1113.72 541.766 1115.52 545.562 1115.52 550.188H1106.8C1106.8 547.812 1105.78 545.766 1103.75 544.047C1101.75 542.328 1099.22 541.469 1096.16 541.469C1093 541.469 1090.53 542.156 1088.75 543.531C1086.97 544.906 1086.08 546.703 1086.08 548.922C1086.08 551.016 1086.91 552.594 1088.56 553.656C1090.22 554.719 1093.2 555.734 1097.52 556.703C1101.86 557.672 1105.38 558.828 1108.06 560.172C1110.75 561.516 1112.73 563.141 1114.02 565.047C1115.33 566.922 1115.98 569.219 1115.98 571.938C1115.98 576.469 1114.17 580.109 1110.55 582.859C1106.92 585.578 1102.22 586.938 1096.44 586.938C1092.38 586.938 1088.78 586.219 1085.66 584.781C1082.53 583.344 1080.08 581.344 1078.3 578.781C1076.55 576.188 1075.67 573.391 1075.67 570.391H1084.34C1084.5 573.297 1085.66 575.609 1087.81 577.328C1090 579.016 1092.88 579.859 1096.44 579.859C1099.72 579.859 1102.34 579.203 1104.31 577.891C1106.31 576.547 1107.31 574.766 1107.31 572.547Z" fill="#2479DF"/>
<g clip-path="url(#clip0_99_14)">
<path d="M1757.7 472.172C1757.7 496.018 1753.5 517.953 1745.11 537.976C1736.89 557.999 1725.49 575.293 1710.89 589.855C1696.29 604.236 1678.95 615.522 1658.88 623.713C1638.8 631.905 1616.99 636 1593.45 636H1401.28C1396.17 636 1391.43 635.09 1387.05 633.27C1382.67 631.449 1378.84 628.992 1375.55 625.898C1372.45 622.621 1369.99 618.798 1368.16 614.43C1366.34 610.061 1365.42 605.328 1365.42 600.231V280.219C1365.42 275.305 1366.34 270.663 1368.16 266.294C1369.99 261.925 1372.45 258.103 1375.55 254.826C1378.84 251.549 1382.67 249.001 1387.05 247.181C1391.43 245.36 1396.17 244.45 1401.28 244.45H1593.45C1616.99 244.45 1638.8 248.546 1658.88 256.737C1678.95 264.929 1696.29 276.306 1710.89 290.868C1725.49 305.249 1736.89 322.542 1745.11 342.747C1753.5 362.771 1757.7 384.615 1757.7 408.278V472.172ZM1686.52 408.278C1686.52 394.444 1684.24 381.793 1679.68 370.325C1675.3 358.857 1669.01 349.118 1660.79 341.109C1652.58 332.918 1642.73 326.637 1631.23 322.269C1619.91 317.718 1607.32 315.443 1593.45 315.443H1520.69C1474.25 315.443 1436.6 352.997 1436.6 399.323V565.008H1593.45C1607.32 565.008 1619.91 562.824 1631.23 558.455C1642.73 553.904 1652.58 547.624 1660.79 539.615C1669.01 531.423 1675.3 521.684 1679.68 510.399C1684.24 498.93 1686.52 486.188 1686.52 472.172V408.278Z" fill="#2479DF"/>
<path d="M1537.96 413.223C1537.42 412.503 1537.26 411.567 1537.53 410.709L1543.82 390.679C1544.26 389.248 1543.5 387.717 1542.09 387.21L1508.51 375.193C1507.09 374.686 1506.33 373.155 1506.78 371.723L1510.88 358.658C1513.64 349.876 1522.97 344.954 1531.8 347.626L1620.37 374.434C1629.32 377.142 1634.34 386.613 1631.54 395.514L1626.73 410.839C1626.27 412.312 1624.7 413.131 1623.22 412.67L1590.74 402.526C1589.25 402.06 1587.67 402.9 1587.22 404.393L1572.9 452.296C1572.24 454.497 1569.35 455.01 1567.97 453.172L1537.96 413.223Z" fill="#2479DF"/>
<path d="M1551.39 535.127C1550.1 535.893 1548.39 535.543 1547.5 534.331L1491.66 458.14C1488.64 454.018 1487.71 448.852 1489.13 444.094L1498.33 413.266C1498.99 411.048 1502.08 410.635 1503.45 412.583L1560.35 493.611C1561.17 494.77 1562.75 495.187 1564.03 494.582L1603.68 475.923C1605.91 474.876 1608.43 476.902 1607.75 479.19L1601.4 500.448C1600.26 504.257 1597.71 507.51 1594.21 509.598L1551.39 535.127Z" fill="#2479DF"/>
<path d="M1626.46 458.768C1634.2 458.768 1640.47 452.509 1640.47 444.788C1640.47 437.067 1634.2 430.808 1626.46 430.808C1618.71 430.808 1612.44 437.067 1612.44 444.788C1612.44 452.509 1618.71 458.768 1626.46 458.768Z" fill="#05FB96"/>
</g>
<line x1="1240" y1="740" x2="1240" y2="140" stroke="#2479DF" stroke-width="6" stroke-linecap="round"/>
<defs>
<clipPath id="clip0_99_14">
<rect width="393" height="392" fill="white" transform="translate(1365 244)"/>
</clipPath>
</defs>
</svg>
